<svg width="467" height="429" viewBox="0 0 467 429" fill="none" xmlns="http://www.w3.org/2000/svg">
<path d="M99.7615 13.4573C93.8401 18.3918 84.6615 19.5734 77.4289 21.4333C65.82 24.4184 57.6843 31.7587 49.9562 40.5312C40.6906 51.0489 34.9729 60.5089 31.3457 74.5175C28.8722 84.0704 28.2906 94.8146 28.0224 104.604C27.6307 118.901 28.8214 133.955 33.5613 147.497C36.684 156.419 37.6174 166.964 43.8414 174.571C47.9344 179.574 54.3492 181.535 60.2806 183.345C67.7582 185.626 74.9618 188.247 82.5689 190.124C88.962 191.702 96.1188 194.172 102.775 193.359C112.564 192.163 122.546 189.887 132.108 187.51C145.313 184.228 157.127 177.917 167.557 169.077C177.212 160.893 186.883 151.029 193.434 140.186C198.518 131.772 197.865 122.662 197.865 113.245C197.865 109.597 197.916 106.261 197.068 102.699C195.946 97.9854 197.079 91.1463 193.612 87.4119C184.145 77.2174 177.042 65.5901 168.576 54.6663C160.759 44.5794 153.273 31.0834 142.123 24.2691C134.188 19.4204 123.468 17.1115 114.473 14.698C108.21 13.0178 101.512 11.0645 94.9759 11.0645" stroke="#FFFEFE" stroke-opacity="0.8" stroke-width="22" stroke-linecap="round"/>
<path d="M197.865 27.0164C186.136 35.9675 175.306 46.3761 164.455 56.3501C159.371 61.0236 155.005 66.2648 149.301 70.2194C142.775 74.7441 135.906 78.7494 129.671 83.6898C120.088 91.2843 112.892 101.053 104.37 109.7C97.7854 116.382 91.982 123.479 86.1138 130.792C80.6133 137.647 75.0098 145.982 67.5919 150.998C57.6816 157.699 48.4161 163.795 39.4989 172.001C34.2402 176.841 28.5236 180.954 23.1926 185.693C19.9448 188.58 15.5535 190.523 11.2287 190.523" stroke="#FFFEFE" stroke-opacity="0.8" stroke-width="22" stroke-linecap="round"/>
<path d="M57.4891 78.86C54.9972 79.1714 56.6915 91.5636 56.6915 85.2407" stroke="#FFFEFE" stroke-opacity="0.8" stroke-width="22" stroke-linecap="round"/>
<path d="M57.4891 129.108C57.4891 126.837 56.8965 123.024 59.0842 121.93" stroke="#FFFEFE" stroke-opacity="0.8" stroke-width="22" stroke-linecap="round"/>
<path d="M86.2024 91.6214C85.526 91.706 84.6072 99.007 84.6072 95.6094" stroke="#FFFEFE" stroke-opacity="0.8" stroke-width="22" stroke-linecap="round"/>
<path d="M201.056 125.918C200.841 129.569 196.269 131.521 194.852 134.869C194.075 136.706 192.36 138.182 191.352 140.097C188.577 145.369 185.119 150.211 182.357 155.429C180.52 158.899 177.53 163.785 174.204 165.931C170.907 168.057 167.39 170.655 165.43 173.862C163.516 176.995 161.829 180.21 159.404 182.724C157.054 185.161 156.043 191.185 152.979 192.207C148.803 193.599 146.303 196.904 142.034 196.904" stroke="#FFFEFE" stroke-opacity="0.8" stroke-width="22" stroke-linecap="round"/>
<path d="M142.034 198.499C143.726 200.003 147.029 200.673 149.212 200.892C152.112 201.182 152.927 203.382 155.15 204.525C163.085 208.606 172.963 209.181 181.116 212.944C186.199 215.29 188.291 218.942 194.055 219.99C202.375 221.502 213.227 222.684 220.553 227.212C233.086 234.96 245.567 242.084 259.324 247.152C270.848 251.397 282.357 254.883 293.577 259.869C300.631 263.005 307.231 267.651 313.782 271.789C318.763 274.935 323.434 276.3 328.848 278.258C334.605 280.341 340.733 282.022 346.218 284.816C348.392 285.924 349.987 287.855 352.421 288.45C354.384 288.93 356.778 288.897 358.58 289.868C362.299 291.87 365.174 294.093 369.259 295.406C370.529 295.815 374.446 296.43 374.931 297.4" stroke="#FFFEFE" stroke-opacity="0.8" stroke-width="22" stroke-linecap="round"/>
<path d="M209.032 121.93C211.412 123.857 214.312 124.281 217.185 125.12C221.091 126.262 224.676 128.179 228.528 129.463C234.206 131.355 240.296 135.7 246.164 136.287C253.451 137.015 257.307 146.689 262.116 150.909C265.497 153.876 269.035 156.041 273.105 157.822C279.023 160.411 284.08 164.869 290.032 167.526C297.625 170.916 303.116 173.965 309.44 179.179C314.232 183.131 318.727 186.587 322.999 191.188C325.213 193.572 327.372 195.352 330.089 197.081C332.435 198.574 333.896 201.014 335.849 202.93C338.802 205.828 342.69 207.536 345.686 210.374C350.423 214.862 355.529 218.74 359.865 223.667C364.427 228.851 369.703 233.12 375.817 236.252C379.217 237.993 382.103 242.409 385.699 243.208C387.614 243.634 389.496 246.647 390.883 247.861C393.787 250.402 397.511 251.751 400.543 254.153C402.923 256.039 405.478 256.819 407.81 258.939C410.358 261.255 409.86 261.003 407.632 264.345C404.698 268.746 399.903 272.725 395.979 276.309C391.816 280.109 389.025 283.657 386.718 288.804C385.917 290.59 381.892 295.805 379.717 295.805" stroke="#FFFEFE" stroke-opacity="0.8" stroke-width="22" stroke-linecap="round"/>
<path d="M229.769 144.263C226.252 152.175 222.94 160.407 220.198 168.633C217.938 175.414 211.993 179.932 209.209 186.535C207.663 190.203 207.092 194.577 205.487 198.056C204.179 200.889 202.123 203.448 201.233 206.475C200.81 207.912 199.871 210.657 198.663 211.26" stroke="#FFFEFE" stroke-opacity="0.8" stroke-width="22" stroke-linecap="round"/>
<path d="M252.102 216.046C253.748 216.229 254.993 218.146 256.267 219.059C258.568 220.708 261.19 222.373 263.711 223.667C266.394 225.045 270.071 225.322 272.485 226.858C275.187 228.578 277.367 229.046 280.372 230.048C284.963 231.578 286.817 233.593 291.804 233.593C299.756 233.593 309.019 234.727 315.953 229.96C321.672 226.028 326.835 218.384 322.157 211.659C319.1 207.265 312.287 203.95 307.18 202.886C302.316 201.872 297.758 200.101 292.956 199.119C289.394 198.391 286.552 197.748 283.208 196.726C279.394 195.561 275.785 193.854 272.042 192.517C269.752 191.699 266.949 192.118 264.553 192.118C261.563 192.118 261.841 192.811 260.078 195.131C259.03 196.51 256.998 197.679 255.735 198.942C254.907 199.77 255.05 202.174 254.495 203.284" stroke="#FFFEFE" stroke-opacity="0.8" stroke-width="22" stroke-linecap="round"/>
<path d="M370.943 245.557C370.093 252.36 365.562 261.985 360.176 266.294C355.685 269.887 352.034 275.964 350.206 281.449" stroke="#FFFEFE" stroke-opacity="0.8" stroke-width="22" stroke-linecap="round"/>
<path d="M405.24 278.258C410.834 283.853 417.475 286.84 424.736 290.399C427.495 291.752 431.56 293.32 431.56 297.046C431.56 301.077 429.585 303.115 428.37 306.617C425.971 313.531 416.443 318.295 411.443 311.757C407.54 306.653 405.143 299.597 400.809 295.008C398.756 292.835 397.317 291.831 394.073 291.02" stroke="#FFFEFE" stroke-opacity="0.8" stroke-width="22" stroke-linecap="round"/>
<path d="M431.56 315.745C434.843 318.664 437.175 321.673 439.713 325.228C442.164 328.659 445.778 332.218 447.689 336.039C455.011 350.682 459.084 370.391 451.677 385.49C445.144 398.807 434.349 406.819 421.191 413.051C414.884 416.039 407.391 415.444 400.631 415.444C394.365 415.444 388.089 415.932 381.844 416.419C378.135 416.708 374.385 417.926 370.677 417.926C366.038 417.926 361.123 416.499 356.542 415.799C340.31 413.319 325.961 404.943 309.794 402.328C291.185 399.318 274.725 389.415 261.407 376.096C253.203 367.892 243.582 363.913 233.048 359.524C226.964 356.989 221.706 353.22 215.944 350.086C209.643 346.659 202.913 344.178 196.536 340.914C186.883 335.972 178.36 331.285 167.601 328.994C155.333 326.381 143.225 326.214 130.735 326.956C109.14 328.239 90.3313 334.677 72.1116 346.231C66.5916 349.731 60.6773 353.322 55.4951 357.309C47.9242 363.132 46.36 369.759 43.8857 378.666C42.8421 382.423 41.5272 390.64 38.4798 393.688C36.5945 395.573 32.5376 397.833 32.0104 400.733C31.1656 405.379 31.9661 410.708 31.9661 415.444" stroke="#FFFEFE" stroke-opacity="0.8" stroke-width="22" stroke-linecap="round"/>
</svg>
