<svg xmlns="http://www.w3.org/2000/svg" stroke="#FFFEFE" viewBox="0 0 64 64" id="microphone"><path d="M36.21,32l-.71-.71-2.12-2.12a3,3,0,1,0-4.24,4.24l1.41,1.41L32,36.21a3,3,0,0,0,4.24,0h0a3,3,0,0,0,0-4.24Zm-5.66-1.41a1,1,0,0,1,1.41,0l.71.71-1.41,1.41L30.56,32A1,1,0,0,1,30.56,30.56ZM34.8,34.8h0a1,1,0,0,1-1.41,0l-.71-.71,1.41-1.41.71.71a1,1,0,0,1,0,1.41Z"></path><rect width="2" height="2" x="6.93" y="12.59" transform="rotate(-45 7.936 13.583)"></rect><rect width="2" height="2" x="10.46" y="13.29" transform="rotate(-45 11.46 14.293)"></rect><rect width="2" height="2" x="7.64" y="16.12" transform="rotate(-45 8.633 17.124)"></rect><path d="M19.69,41.64,39,58.86a7.18,7.18,0,0,0,9.86-.28l.5-.5a7.19,7.19,0,0,0,0-10.15l-.4-.4L50,46.47a1.5,1.5,0,0,0,0-2.12l-1.77-1.77,1.37-1.37L31,20.21h0l-4-4.55a12,12,0,0,0-2.21-7.6l.84-.84a1,1,0,1,0-1.41-1.41l-.71.71a12,12,0,1,0-17,17l-.71.71a1,1,0,1,0,1.41,1.41l.84-.84A12,12,0,0,0,15,27l.64,0,4.55,4h0l21,18.6,1.37-1.37L44.35,50a1.5,1.5,0,0,0,2.12,0l1.06-1.06.4.4a5.19,5.19,0,0,1,0,7.33l-.5.5a5.18,5.18,0,0,1-7.11.2L21,40.14a7.18,7.18,0,0,0-9.86,10.43l9.13,9.13a1,1,0,0,0,1.41-1.41l-9.13-9.13a5.18,5.18,0,0,1,7.11-7.53ZM17.87,26.27l8.4-8.4,2,2.25-8.14,8.14ZM7.93,7.93a10,10,0,0,1,14.14,0L7.93,22.07A10,10,0,0,1,7.93,7.93ZM23.33,9.5a10,10,0,0,1,1.55,6.93l-8.46,8.46A10,10,0,0,1,9.5,23.33Zm6.26,12.12L43.54,37.37l-6.17,6.17L21.62,29.59ZM41.12,46.86l-2.25-2,6-6,2,2.25,0,0-5.66,5.66Zm4.28,1.37L44,46.82,46.82,44l1.41,1.41Z"></path></svg>